<svg id="Layer_1" data-name="Layer 1" xmlns="http://www.w3.org/2000/svg" viewBox="0 0 382.47 374.15"><title>cart-logo</title><path d="M11,.15l59,14c4,0,6,3,7,6l9,44,289,27c5,1,9,6,7,11l-45,138c-1,4-4,6-8,6H124l4,21H326c11,0,11,20,0,20H119c-4,0-8-2-9-7l-51-248-52-12C-5,17.15,0-1.85,11,.15Zm79,84,29,142H321l38-116Z"/><path d="M163,296.15c21,0,39,18,39,39a39,39,0,0,1-78,0C124,314.15,142,296.15,163,296.15Zm0,20c-10,0-19,9-19,19,0,11,8,19,19,19a19,19,0,0,0,19-19C182,325.15,173,316.15,163,316.15Z"/><path d="M284,296.15c21,0,39,18,39,39a39,39,0,0,1-78,0C245,314.15,263,296.15,284,296.15Zm0,20c-10,0-19,9-19,19a19,19,0,0,0,38,0C303,325.15,294,316.15,284,316.15Z"/></svg>