<?xml version="1.0" encoding="utf-8"?>
<!-- Generator: Adobe Illustrator 23.0.0, SVG Export Plug-In . SVG Version: 6.00 Build 0)  -->
<svg version="1.1" id="Layer_1" xmlns="http://www.w3.org/2000/svg" xmlns:xlink="http://www.w3.org/1999/xlink" x="0px" y="0px"
	 viewBox="0 0 382.5 374.1" style="enable-background:new 0 0 382.5 374.1;" xml:space="preserve">
<style type="text/css">
	.st0{fill:#BBC3C6;}
</style>
<title>cart-logo</title>
<path class="st0" d="M11,0.2l59,14c4,0,6,3,7,6l9,44l289,27c5,1,9,6,7,11l-45,138c-1,4-4,6-8,6H124l4,21h198c11,0,11,20,0,20H119
	c-4,0-8-2-9-7l-51-248l-52-12C-5,17.1,0-1.9,11,0.2z M90,84.2l29,142h202l38-116L90,84.2z"/>
<path class="st0" d="M163,296.1c21,0,39,18,39,39c0,21.5-17.5,39-39,39s-39-17.5-39-39C124,314.1,142,296.1,163,296.1z M163,316.1
	c-10,0-19,9-19,19c0,11,8,19,19,19c10.5,0,19-8.5,19-19C182,325.1,173,316.1,163,316.1z"/>
<path class="st0" d="M284,296.1c21,0,39,18,39,39c0,21.5-17.5,39-39,39s-39-17.5-39-39C245,314.1,263,296.1,284,296.1z M284,316.1
	c-10,0-19,9-19,19c0,10.5,8.5,19,19,19s19-8.5,19-19C303,325.1,294,316.1,284,316.1z"/>
</svg>
