<svg id="Layer_1" data-name="Layer 1" xmlns="http://www.w3.org/2000/svg" viewBox="0 0 80 80"><title>ce-logo</title><path d="M42.11,25.79a5.07,5.07,0,0,0,4-2.31,5,5,0,0,0-4.49-7.72A26.31,26.31,0,0,0,18.47,52a5,5,0,0,0,4.21,3.13l.47,0a5,5,0,0,0,4.62-6.93A16.29,16.29,0,0,1,42.11,25.79ZM25.92,48.93a3,3,0,0,1-.24,2.79,3,3,0,0,1-2.82,1.38,3,3,0,0,1-2.54-1.89A24.33,24.33,0,0,1,41.74,17.75h.15a3,3,0,0,1,2.55,4.66A3,3,0,0,1,42,23.79,18.28,18.28,0,0,0,25.92,48.93Z"/><path d="M40,0A40,40,0,1,0,80,40,40,40,0,0,0,40,0Zm0,78A38,38,0,1,1,78,40,38,38,0,0,1,40,78Z"/><path d="M41.58,43A10.85,10.85,0,1,0,52.43,53.86,10.85,10.85,0,0,0,41.58,43Zm0,19.69a8.85,8.85,0,1,1,8.85-8.85A8.86,8.86,0,0,1,41.58,62.71Z"/><path d="M40,9A31,31,0,1,0,71,40,31,31,0,0,0,40,9ZM40,69A29,29,0,1,1,69,40,29,29,0,0,1,40,69Z"/><path d="M44.92,50.52a1,1,0,0,0-1.42,0l-1.92,1.93-1.93-1.93a1,1,0,0,0-1.41,0,1,1,0,0,0,0,1.42l1.92,1.92-1.92,1.93a1,1,0,0,0,.7,1.71,1,1,0,0,0,.71-.29l1.93-1.93,1.92,1.93a1,1,0,0,0,.71.29,1,1,0,0,0,.71-.29,1,1,0,0,0,0-1.42L43,53.86l1.93-1.92A1,1,0,0,0,44.92,50.52Z"/><path d="M55.6,26.12l-.17.09a2.43,2.43,0,0,1-2.24,0L53,26.14a4.4,4.4,0,0,0-6.37,4.69,2.79,2.79,0,0,1-.78,2.45,4.4,4.4,0,0,0,2.49,7.5l.18,0a2.43,2.43,0,0,1,1.83,1.31l.08.16a4.38,4.38,0,0,0,3.94,2.43h0a4.38,4.38,0,0,0,3.94-2.48l.08-.17a2.42,2.42,0,0,1,1.81-1.33l.18,0a4.42,4.42,0,0,0,2.4-7.54L62.7,33a2.41,2.41,0,0,1-.7-2.13l0-.18a4.41,4.41,0,0,0-6.43-4.61Zm5.72,8.36.13.13a2.41,2.41,0,0,1-1.31,4.12l-.18,0a4.39,4.39,0,0,0-3.31,2.43l-.08.17a2.41,2.41,0,0,1-4.32,0l-.08-.16a4.42,4.42,0,0,0-3.34-2.39l-.18,0a2.41,2.41,0,0,1-1.37-4.1,4.76,4.76,0,0,0,1.35-4.22A2.43,2.43,0,0,1,51,27.63a2.51,2.51,0,0,1,1.12.28l.16.09a4.45,4.45,0,0,0,4.11,0l.16-.09a2.41,2.41,0,0,1,3.51,2.52l0,.18A4.43,4.43,0,0,0,61.32,34.48Z"/></svg>