<?xml version="1.0" encoding="utf-8"?>
<!-- Generator: Adobe Illustrator 23.0.0, SVG Export Plug-In . SVG Version: 6.00 Build 0)  -->
<svg version="1.1" id="Layer_1" xmlns="http://www.w3.org/2000/svg" xmlns:xlink="http://www.w3.org/1999/xlink" x="0px" y="0px"
	 viewBox="0 0 80 80" style="enable-background:new 0 0 80 80;" xml:space="preserve">
<style type="text/css">
	.st0{fill:#BBC3C6;}
</style>
<title>ce-logo</title>
<path class="st0" d="M42.1,25.8c1.6-0.1,3.1-0.9,4-2.3c1.5-2.3,0.9-5.4-1.5-6.9c-0.9-0.6-2-0.9-3-0.8c-14.5,0.7-25.7,13-25.1,27.5
	c0.1,3,0.8,6,1.9,8.8c0.7,1.8,2.3,3,4.2,3.1h0.5c2.8,0,5-2.2,5-5c0-0.7-0.1-1.3-0.4-1.9c-3.4-8.3,0.6-17.8,9-21.2
	C38.4,26.3,40.3,25.9,42.1,25.8z M25.9,48.9c0.4,0.9,0.3,2-0.2,2.8c-0.6,1-1.7,1.5-2.8,1.4c-1.1-0.1-2.1-0.8-2.5-1.9
	c-5.1-12.4,0.9-26.6,13.4-31.7c2.6-1,5.3-1.6,8-1.8h0.2c1.7,0,3,1.3,3.1,2.9c0,0.6-0.2,1.2-0.5,1.7c-0.5,0.8-1.4,1.4-2.4,1.4
	c-10.1,0.5-17.9,9-17.4,19.1C24.7,45,25.1,47,25.9,48.9z"/>
<path class="st0" d="M40,0C17.9,0,0,17.9,0,40s17.9,40,40,40s40-17.9,40-40S62.1,0,40,0z M40,78C19,78,2,61,2,40S19,2,40,2
	s38,17,38,38S61,78,40,78z"/>
<path class="st0" d="M41.6,43c-6,0-10.8,4.9-10.8,10.9s4.9,10.9,10.9,10.9c6,0,10.8-4.9,10.8-10.8C52.4,47.9,47.6,43,41.6,43
	C41.6,43,41.6,43,41.6,43z M41.6,62.7c-4.9,0-8.9-4-8.9-8.8s4-8.9,8.8-8.9s8.9,4,8.9,8.8v0C50.4,58.7,46.5,62.7,41.6,62.7L41.6,62.7
	L41.6,62.7z"/>
<path class="st0" d="M40,9C22.9,9,9,22.9,9,40s13.9,31,31,31s31-13.9,31-31S57.1,9,40,9z M40,69c-16,0-29-13-29-29s13-29,29-29
	s29,13,29,29S56,69,40,69z"/>
<path class="st0" d="M44.9,50.5c-0.4-0.4-1-0.4-1.4,0c0,0,0,0,0,0l-1.9,1.9l-1.9-1.9c-0.4-0.4-1-0.4-1.4,0c-0.4,0.4-0.4,1,0,1.4
	c0,0,0,0,0,0l1.9,1.9l-1.9,1.9c-0.4,0.4-0.4,1,0,1.4c0.2,0.2,0.4,0.3,0.7,0.3c0.3,0,0.5-0.1,0.7-0.3l1.9-1.9l1.9,1.9
	c0.2,0.2,0.4,0.3,0.7,0.3c0.3,0,0.5-0.1,0.7-0.3c0.4-0.4,0.4-1,0-1.4c0,0,0,0,0,0L43,53.9l1.9-1.9C45.3,51.5,45.3,50.9,44.9,50.5
	C44.9,50.5,44.9,50.5,44.9,50.5z"/>
<path class="st0" d="M55.6,26.1l-0.2,0.1c-0.7,0.4-1.5,0.4-2.2,0L53,26.1c-2.2-1.1-4.8-0.3-5.9,1.9c-0.5,0.9-0.6,1.9-0.4,2.8
	c0.2,0.9-0.1,1.8-0.8,2.4c-1.7,1.7-1.8,4.5-0.1,6.2c0.7,0.7,1.6,1.1,2.5,1.3h0.2c0.8,0.1,1.5,0.6,1.8,1.3l0.1,0.2
	c0.7,1.5,2.3,2.4,3.9,2.4l0,0c1.7,0,3.2-1,3.9-2.5l0.1-0.2c0.3-0.7,1-1.2,1.8-1.3h0.2c2.4-0.4,4.1-2.6,3.7-5
	c-0.1-0.9-0.6-1.8-1.3-2.5L62.7,33c-0.6-0.6-0.8-1.3-0.7-2.1v-0.2c0.4-2.4-1.2-4.7-3.6-5.1C57.4,25.5,56.4,25.6,55.6,26.1L55.6,26.1
	z M61.3,34.5l0.1,0.1c1,0.9,1,2.4,0.1,3.4c-0.4,0.4-0.9,0.6-1.4,0.7H60c-1.4,0.2-2.7,1.1-3.3,2.4l-0.1,0.2c-0.6,1.2-2,1.7-3.2,1.1
	c-0.5-0.2-0.9-0.6-1.1-1.1l-0.1-0.2c-0.7-1.3-1.9-2.2-3.3-2.4h-0.2c-1.3-0.2-2.2-1.4-2.1-2.7c0.1-0.5,0.3-1,0.7-1.4
	c1.1-1.1,1.6-2.7,1.3-4.2c-0.2-1.3,0.7-2.6,2-2.8c0.1,0,0.2,0,0.4,0c0.4,0,0.8,0.1,1.1,0.3l0.2,0.1c1.3,0.7,2.8,0.7,4.1,0l0.2-0.1
	c1.2-0.6,2.6-0.2,3.3,1c0.2,0.5,0.3,1,0.3,1.5v0.2C59.8,32,60.3,33.5,61.3,34.5z"/>
</svg>
