<svg id="Layer_1" data-name="Layer 1" xmlns="http://www.w3.org/2000/svg" viewBox="0 0 879.68 879.48"><title>search-logo</title><path d="M167.81,629.23a9.47,9.47,0,0,1,1,.84l.11.09C167.41,628.27,167.21,628.58,167.81,629.23Z" transform="translate(0 0)"/><path d="M241.5,65.19l-.53.21C239.91,65.79,237.93,67,241.5,65.19Z" transform="translate(0 0)"/><path d="M66.07,239.5c-.07.15-.14.32-.22.47s-.11.28-.18.43C64.27,243.7,65.87,240,66.07,239.5Z" transform="translate(0 0)"/><path d="M107.22,568.45l0,0Z" transform="translate(0 0)"/><path d="M874,845.4l-24.3-24.3-58.4-58.4L720.57,692l-61.1-61.1C654,625.47,648.7,620,643.3,614.49a373.18,373.18,0,0,0,33.47-43.09c41.2-61.9,62.4-136.9,60.7-211.2s-26-148.2-70.1-208.2a390.68,390.68,0,0,0-37.66-44.27l0,0a.12.12,0,0,0,0,0l0-.05s0,0,0,0C576.06,54.34,506.31,17.49,431.67,5.1a376,376,0,0,0-219.6,29.5c-69.3,32.1-128.1,87.3-165.3,154-36.1,64.7-52.3,140.5-45.1,214.2a372.73,372.73,0,0,0,87.4,206,368.74,368.74,0,0,0,191.3,117.8c71.4,17.5,148.3,13.5,217.2-12.5a373.85,373.85,0,0,0,117.28-71.23l10.52,10.53,58.4,58.4,70.7,70.7,61.1,61.1c9.9,9.9,19.5,20.1,29.7,29.7l.4.4c7.4,7.4,21,8,28.3,0S881.87,853.3,874,845.4ZM108.18,167.54l-1,1.36C107.49,168.43,107.83,168,108.18,167.54ZM496.77,671.8l-.19.08Zm66-37.4c-3.7,2.7-7.4,5.2-11.2,7.7-7.5,5-15.2,9.7-23,14s-15.7,8.4-23.8,12.1c-1.7.8-3.4,1.5-5.1,2.3-1.1.5-2.1.9-3.2,1.4l-.5.22c-3.83,1.5-7.66,3.08-11.5,4.48a342.83,342.83,0,0,1-49.9,14.3c-4,.8-8.1,1.6-12.2,2.3-2,.3-4.1.7-6.1,1-1,.18-2.06.29-3.07.45l-.43.05c-8.4,1-16.8,1.8-25.3,2.3a340.75,340.75,0,0,1-51.5-1.1c-4.1-.4-8.2-1-12.3-1.4,6,.5-.8-.1-2.2-.3L314,693c-8.4-1.5-16.7-3.2-25-5.3s-16.5-4.5-24.6-7.1c-8.4-2.8-16.4-6.4-24.8-9.2,5.2,1.8-1-.5-2.3-1-1.9-.9-3.8-1.7-5.7-2.6-4.2-2-8.4-4-12.6-6.2-7.7-4-15.3-8.3-22.8-12.8s-14.8-9.5-21.9-14.7c-1.74-1.28-3.56-2.65-5.31-3.94l.11.14-.22-.23-.38-.27a4.38,4.38,0,0,1-.66-.57l-1-.73c-3.8-3-7.5-6.1-11.2-9.2a348.09,348.09,0,0,1-38.3-38.5c-2.8-3.3-5.6-6.7-8.3-10.1,0,0-.21-.26-.43-.54.22.28-.72-.95-1.32-1.71l.65.85.66.85c-.59-.75-1.5-1.95-1.33-1.72a5.19,5.19,0,0,0-.43-.53c-1.4-1.9-2.9-3.8-4.3-5.8-5.3-7.3-10.3-14.9-15-22.6-4.5-7.4-8.8-15.1-12.7-22.8-1.9-3.8-3.7-7.5-5.5-11.4-.9-1.9-1.7-3.8-2.6-5.7-.4-.9-.7-1.7-1.1-2.6l-.4-.9a353.46,353.46,0,0,1-16.1-49.6c-2-8.3-3.7-16.6-5.1-25-.3-2-.7-4.1-1-6.1-.06-.59-.16-1.17-.26-1.76,0-.11,0-.25,0-.44-.5-4.3-1-8.6-1.4-13a348.61,348.61,0,0,1-.8-52.1c.2-4.1.6-8.2.9-12.3.2-1.8.4-3.6.6-5.5.1-1.1.3-2.3.4-3.4.1-.7.7-5.5.3-2.1s.2-1,.2-1.4c.1-.9.3-1.8.4-2.7.3-2,.6-4.1,1-6.1.7-4.3,1.6-8.6,2.5-12.9a343,343,0,0,1,14.7-50.5A118.36,118.36,0,0,1,65.85,240c.32-.73.59-1.42.92-2.17,1-2.3,2.1-4.7,3.2-7,3.7-7.9,7.6-15.6,11.9-23.1,4.4-7.8,9.1-15.5,14.1-23,2.4-3.6,4.9-7.1,7.4-10.6,1.3-1.7,2.6-3.5,3.9-5.2.42-.54,1.29-1.76,1.34-1.89l1.26-1.51a365.4,365.4,0,0,1,37-39.7c6.69-6.09,13.57-12,20.73-17.6l-.23.2a31.55,31.55,0,0,1,2.9-2.2c1.7-1.3,3.5-2.6,5.2-3.8,3.9-2.8,7.8-5.5,11.8-8.1A332.64,332.64,0,0,1,232.87,69c2.1-1,4.2-1.9,6.4-2.9.8-.4,1.7-.7,2.6-1.1l-.37.19c4.13-1.64,8.25-3.36,12.47-4.89,8.2-3,16.6-5.7,25.1-8.1,8-2.3,16-4.2,24.1-5.9,4-.8,8.1-1.6,12.2-2.3,2.3-.4,4.5-.7,6.8-1.1.74-.08,1.47-.22,2.2-.33l.6-.07a368.1,368.1,0,0,1,51.4-2.7c8.5.2,16.9.7,25.4,1.5,2.92.24,6.69.11,9.88.73a5.29,5.29,0,0,0,1.92.57l.36,0,.14.05-.11,0c1,.15,2,.26,3,.44,2.3.3,4.5.7,6.8,1.1A361.41,361.41,0,0,1,474,56.8c8,2.7,16.6,5.2,24.1,9-5.2-2.6,1.8.8,2.9,1.3,1.7.8,3.4,1.5,5.1,2.3,4.2,2,8.4,4,12.6,6.2a340.88,340.88,0,0,1,45.3,28c1.7,1.3,3.5,2.6,5.2,3.9l.88.63,1.32,1.07c3.4,2.7,6.8,5.5,10.1,8.3,6.8,5.9,13.4,12.1,19.9,18.5,6.6,6.6,12.9,13.4,18.9,20.5,2.8,3.3,5.6,6.7,8.3,10.1.21.24.43.51.64.78l1.06,1.52c1.6,2.1,3.2,4.2,4.7,6.4a341.23,341.23,0,0,1,27.3,44.8c1.9,3.7,3.8,7.5,5.5,11.3,1,2.1,1.9,4.2,2.9,6.4.4.9.7,1.7,1.1,2.6,1.9,4.5-1.7-4.1.2.4,3.3,8.2,6.4,16.4,9.1,24.8a338.75,338.75,0,0,1,12.2,49.6c.4,2.3.7,4.5,1.1,6.8.06.53.15,1.06.24,1.59a.19.19,0,0,0,0-.09s0,.09,0,.13c0,.36.11.71.15,1.07.45,3.22.1,0-.12-1,1.4,3.8,1,9.45,1.42,13.47.8,8.7,1.2,17.4,1.4,26.1.1,8.5,0,16.9-.5,25.4q-.3,6.15-.9,12.3c-.32,3.15-.14,7.26-.78,10.67a5.56,5.56,0,0,0-.52,1.83c0,.11,0,.22,0,.33l-.06.17.05-.11c-.16,1-.27,2-.45,3l-.9,5.4c-.8,4.5-1.6,9-2.6,13.5-1.8,8.3-3.8,16.6-6.2,24.8s-5.1,16.3-8,24.4c-1.41,3.67-2.83,7.34-4.32,11l-.18.39c-.5,1.1-.9,2.1-1.4,3.2-.9,2.1-1.9,4.3-2.9,6.4a346.85,346.85,0,0,1-25.9,46.1c-2.4,3.6-4.8,7.1-7.4,10.6-1.3,1.7-2.5,3.5-3.8,5.2-.6.7-1.1,1.6-1.7,2.3l.22-.25c-.25.3-.48.57-.62.75-5.7,7.2-11.7,14.3-18,21-1.92,2.06-3.88,4.1-5.85,6.12a16.91,16.91,0,0,0-3.65,3,22.74,22.74,0,0,0-2.19,2.85,345.59,345.59,0,0,1-28.71,25.25c-.27.22-.65.55-1,.85l-1.21.85C566.27,631.9,564.47,633.2,562.77,634.4Z" transform="translate(0 0)"/></svg>