<?xml version="1.0" encoding="utf-8"?>
<!-- Generator: Adobe Illustrator 23.0.0, SVG Export Plug-In . SVG Version: 6.00 Build 0)  -->
<svg version="1.1" id="Layer_1" xmlns="http://www.w3.org/2000/svg" xmlns:xlink="http://www.w3.org/1999/xlink" x="0px" y="0px"
	 viewBox="0 0 879.7 879.5" style="enable-background:new 0 0 879.7 879.5;" xml:space="preserve">
<style type="text/css">
	.st0{fill:#BBC3C6;}
</style>
<title>search-logo</title>
<path d="M167.8,629.2c0.4,0.3,0.7,0.5,1,0.8l0.1,0.1C167.4,628.3,167.2,628.6,167.8,629.2z"/>
<path d="M241.5,65.2l-0.5,0.2C239.9,65.8,237.9,67,241.5,65.2z"/>
<path d="M66.1,239.5c-0.1,0.1-0.1,0.3-0.2,0.5s-0.1,0.3-0.2,0.4C64.3,243.7,65.9,240,66.1,239.5z"/>
<path d="M107.2,568.5L107.2,568.5z"/>
<path class="st0" d="M874,845.4l-24.3-24.3l-58.4-58.4L720.6,692l-61.1-61.1c-5.5-5.4-10.8-10.9-16.2-16.4
	c12.2-13.5,23.4-27.9,33.5-43.1c41.2-61.9,62.4-136.9,60.7-211.2S711.5,212,667.4,152c-11.4-15.7-24-30.5-37.7-44.3l0,0l0,0v-0.1
	l0,0c-53.7-53.3-123.4-90.2-198-102.6c-74.5-12.4-151-2.2-219.6,29.5C142.8,66.7,84,121.9,46.8,188.6
	C10.7,253.3-5.5,329.1,1.7,402.8c7.3,76,37.9,147.9,87.4,206c50,58.2,116.8,99.4,191.3,117.8c71.4,17.5,148.3,13.5,217.2-12.5
	c43.2-16.3,82.9-40.5,117.3-71.2l10.5,10.5l58.4,58.4l70.7,70.7l61.1,61.1c9.9,9.9,19.5,20.1,29.7,29.7l0.4,0.4c7.4,7.4,21,8,28.3,0
	S881.9,853.3,874,845.4z M108.2,167.5l-1,1.4C107.5,168.4,107.8,168,108.2,167.5z M496.8,671.8l-0.2,0.1L496.8,671.8z M562.8,634.4
	c-3.7,2.7-7.4,5.2-11.2,7.7c-7.5,5-15.2,9.7-23,14s-15.7,8.4-23.8,12.1c-1.7,0.8-3.4,1.5-5.1,2.3c-1.1,0.5-2.1,0.9-3.2,1.4l-0.5,0.2
	c-3.8,1.5-7.7,3.1-11.5,4.5c-16.2,6-32.9,10.8-49.9,14.3c-4,0.8-8.1,1.6-12.2,2.3c-2,0.3-4.1,0.7-6.1,1c-1,0.2-2.1,0.3-3.1,0.5
	l-0.4,0c-8.4,1-16.8,1.8-25.3,2.3c-17.2,0.9-34.4,0.6-51.5-1.1c-4.1-0.4-8.2-1-12.3-1.4c6,0.5-0.8-0.1-2.2-0.3L314,693
	c-8.4-1.5-16.7-3.2-25-5.3s-16.5-4.5-24.6-7.1c-8.4-2.8-16.4-6.4-24.8-9.2c5.2,1.8-1-0.5-2.3-1c-1.9-0.9-3.8-1.7-5.7-2.6
	c-4.2-2-8.4-4-12.6-6.2c-7.7-4-15.3-8.3-22.8-12.8s-14.8-9.5-21.9-14.7c-1.7-1.3-3.6-2.7-5.3-3.9l0.1,0.1l-0.2-0.2l-0.4-0.3
	c-0.2-0.2-0.5-0.4-0.7-0.6l-1-0.7c-3.8-3-7.5-6.1-11.2-9.2c-13.7-11.8-26.6-24.7-38.3-38.5c-2.8-3.3-5.6-6.7-8.3-10.1
	c0,0-0.2-0.3-0.4-0.5c0.2,0.3-0.7-1-1.3-1.7l0.7,0.8l0.7,0.8c-0.6-0.8-1.5-2-1.3-1.7c-0.1-0.2-0.3-0.4-0.4-0.5
	c-1.4-1.9-2.9-3.8-4.3-5.8c-5.3-7.3-10.3-14.9-15-22.6c-4.5-7.4-8.8-15.1-12.7-22.8c-1.9-3.8-3.7-7.5-5.5-11.4
	c-0.9-1.9-1.7-3.8-2.6-5.7c-0.4-0.9-0.7-1.7-1.1-2.6l-0.4-0.9c-6.6-16.1-12-32.7-16.1-49.6c-2-8.3-3.7-16.6-5.1-25
	c-0.3-2-0.7-4.1-1-6.1c-0.1-0.6-0.2-1.2-0.3-1.8c0-0.1,0-0.3,0-0.4c-0.5-4.3-1-8.6-1.4-13c-1.6-17.3-1.8-34.7-0.8-52.1
	c0.2-4.1,0.6-8.2,0.9-12.3c0.2-1.8,0.4-3.6,0.6-5.5c0.1-1.1,0.3-2.3,0.4-3.4c0.1-0.7,0.7-5.5,0.3-2.1s0.2-1,0.2-1.4
	c0.1-0.9,0.3-1.8,0.4-2.7c0.3-2,0.6-4.1,1-6.1c0.7-4.3,1.6-8.6,2.5-12.9c3.6-17.2,8.5-34.1,14.7-50.5c1.2-3.8,2.7-7.5,4.3-11.2
	c0.3-0.7,0.6-1.4,0.9-2.2c1-2.3,2.1-4.7,3.2-7c3.7-7.9,7.6-15.6,11.9-23.1c4.4-7.8,9.1-15.5,14.1-23c2.4-3.6,4.9-7.1,7.4-10.6
	c1.3-1.7,2.6-3.5,3.9-5.2c0.4-0.5,1.3-1.8,1.3-1.9l1.3-1.5c11.3-14.1,23.7-27.4,37-39.7c6.7-6.1,13.6-12,20.7-17.6l-0.2,0.2
	c0.9-0.8,1.9-1.5,2.9-2.2c1.7-1.3,3.5-2.6,5.2-3.8c3.9-2.8,7.8-5.5,11.8-8.1c14.5-9.6,29.8-18.1,45.6-25.3c2.1-1,4.2-1.9,6.4-2.9
	c0.8-0.4,1.7-0.7,2.6-1.1l-0.4,0.2c4.1-1.6,8.3-3.4,12.5-4.9c8.2-3,16.6-5.7,25.1-8.1c8-2.3,16-4.2,24.1-5.9c4-0.8,8.1-1.6,12.2-2.3
	c2.3-0.4,4.5-0.7,6.8-1.1c0.7-0.1,1.5-0.2,2.2-0.3l0.6-0.1c17-2.1,34.2-3,51.4-2.7c8.5,0.2,16.9,0.7,25.4,1.5
	c2.9,0.2,6.7,0.1,9.9,0.7c0.6,0.3,1.2,0.5,1.9,0.6h0.4l0.1,0H414c1,0.2,2,0.3,3,0.4c2.3,0.3,4.5,0.7,6.8,1.1
	c17,3,33.8,7.2,50.2,12.6c8,2.7,16.6,5.2,24.1,9c-5.2-2.6,1.8,0.8,2.9,1.3c1.7,0.8,3.4,1.5,5.1,2.3c4.2,2,8.4,4,12.6,6.2
	c15.8,8.1,31,17.5,45.3,28c1.7,1.3,3.5,2.6,5.2,3.9l0.9,0.6l1.3,1.1c3.4,2.7,6.8,5.5,10.1,8.3c6.8,5.9,13.4,12.1,19.9,18.5
	c6.6,6.6,12.9,13.4,18.9,20.5c2.8,3.3,5.6,6.7,8.3,10.1c0.2,0.2,0.4,0.5,0.6,0.8l1.1,1.5c1.6,2.1,3.2,4.2,4.7,6.4
	c10.2,14.2,19.4,29.2,27.3,44.8c1.9,3.7,3.8,7.5,5.5,11.3c1,2.1,1.9,4.2,2.9,6.4c0.4,0.9,0.7,1.7,1.1,2.6c1.9,4.5-1.7-4.1,0.2,0.4
	c3.3,8.2,6.4,16.4,9.1,24.8c5.3,16.2,9.4,32.8,12.2,49.6c0.4,2.3,0.7,4.5,1.1,6.8c0.1,0.5,0.2,1.1,0.2,1.6c0,0,0-0.1,0-0.1
	c0,0,0,0.1,0,0.1c0,0.4,0.1,0.7,0.2,1.1c0.5,3.2,0.1,0-0.1-1c1.4,3.8,1,9.5,1.4,13.5c0.8,8.7,1.2,17.4,1.4,26.1
	c0.1,8.5,0,16.9-0.5,25.4c-0.2,4.1-0.5,8.2-0.9,12.3c-0.3,3.1-0.1,7.3-0.8,10.7c-0.3,0.6-0.5,1.2-0.5,1.8c0,0.1,0,0.2,0,0.3
	l-0.1,0.2l0-0.1c-0.2,1-0.3,2-0.5,3l-0.9,5.4c-0.8,4.5-1.6,9-2.6,13.5c-1.8,8.3-3.8,16.6-6.2,24.8s-5.1,16.3-8,24.4
	c-1.4,3.7-2.8,7.3-4.3,11l-0.2,0.4c-0.5,1.1-0.9,2.1-1.4,3.2c-0.9,2.1-1.9,4.3-2.9,6.4c-7.4,16-16.1,31.4-25.9,46.1
	c-2.4,3.6-4.8,7.1-7.4,10.6c-1.3,1.7-2.5,3.5-3.8,5.2c-0.6,0.7-1.1,1.6-1.7,2.3l0.2-0.3c-0.3,0.3-0.5,0.6-0.6,0.8
	c-5.7,7.2-11.7,14.3-18,21c-1.9,2.1-3.9,4.1-5.8,6.1c-1.4,0.8-2.6,1.8-3.7,3c-0.8,0.9-1.5,1.8-2.2,2.8c-9.1,8.9-18.7,17.4-28.7,25.3
	c-0.3,0.2-0.7,0.5-1,0.8l-1.2,0.8C566.3,631.9,564.5,633.2,562.8,634.4L562.8,634.4z"/>
</svg>
